# xmcd CD database file
#
# Track frame offsets:
#	150
#	21300
#	45975
#
# Disc length: 891 seconds
#
# Revision: 0
# Processed by: cddbd v1.5.1PL2 Copyright (c) Steve Scherf et al.
# Submitted via: CDex 1.51
#
DISCID=1a037903
DTITLE=ＳＴＡＲＤＵＳＴ　ＲＥＶＵＥ - Ｇｅｔ　Ｕｐ　Ｍｙ　Ｓｏｕｌ〜テレビ東京系「開運！なんでも鑑定団」エンディングテーマ〜
DYEAR=1996
DGENRE=JPop
TTITLE0=Ｇｅｔ　Ｕｐ　Ｍｙ　Ｓｏｕｌ
TTITLE1=Ｃａｓｓｉｏｐｅｉａ
TTITLE2=Ｇｅｔ　Ｕｐ　Ｍｙ　Ｓｏｕｌ（オリジナルカラオケ）
EXTD=YEAR: 1996/4/25
EXTT0=
EXTT1=
EXTT2=
PLAYORDER=
